<?xml version="1.0" encoding="utf-8"?>
<!-- Generator: Adobe Illustrator 21.1.0, SVG Export Plug-In . SVG Version: 6.00 Build 0)  -->
<svg version="1.0" id="Layer_1" xmlns="http://www.w3.org/2000/svg" xmlns:xlink="http://www.w3.org/1999/xlink" x="0px" y="0px"
	 viewBox="0 0 100 100" enable-background="new 0 0 100 100" xml:space="preserve">
<title>SMS</title>
<desc>Created with Sketch.</desc>
<g id="Page-1_1_">
	<g id="Share" transform="translate(-217.000000, -1095.000000)">
		<g id="SMS" transform="translate(217.000000, 1095.000000)">
			<circle id="Oval-2-Copy-6" fill="#4DB520" cx="50" cy="50" r="50"/>
			<g id="Page-1" transform="translate(22.000000, 22.000000)">
				<path id="Fill-1" fill="#FFFFFF" d="M28,0C12.5,0,0,12.5,0,28c0,15.5,12.5,28,28,28h28l-10.5-6.2C51.9,44.7,56,36.8,56,28
					C56,12.5,43.5,0,28,0 M28,2.7c3.4,0,6.7,0.7,9.8,2c3,1.3,5.7,3.1,8,5.4c2.3,2.3,4.1,5,5.4,8c1.3,3.1,2,6.4,2,9.8
					c0,3.9-0.9,7.6-2.6,11.1c-1.6,3.3-4,6.3-6.9,8.6l-3,2.5l3.4,2l1.9,1.1H28c-3.4,0-6.7-0.7-9.8-2c-3-1.3-5.7-3.1-8-5.4
					s-4.1-5-5.4-8c-1.3-3.1-2-6.4-2-9.8c0-3.4,0.7-6.7,2-9.8c1.3-3,3.1-5.7,5.4-8s5-4.1,8-5.4C21.3,3.4,24.6,2.7,28,2.7"/>
				<path id="Fill-3" fill="#FFFFFF" d="M19.7,33.5c-0.2,0.5-0.5,0.9-0.9,1.3c-0.4,0.4-0.8,0.7-1.3,0.9c-0.5,0.2-1,0.3-1.6,0.3
					c-0.5,0-0.9-0.1-1.3-0.2c-0.4-0.1-0.7-0.3-1-0.4c-0.2-0.1-0.4-0.2-0.5-0.3c-0.1-0.1-0.2-0.2-0.4-0.2c-0.2-0.1-0.4-0.3-0.4-0.4
					c-0.1-0.1-0.1-0.3-0.1-0.4c0-0.2,0.1-0.4,0.2-0.6l0.1-0.1c0.2-0.3,0.5-0.5,0.8-0.5c0.2,0,0.4,0.1,0.5,0.2l0.9,0.6
					c0.2,0.1,0.4,0.2,0.6,0.3c0.2,0.1,0.4,0.1,0.7,0.1c0.3,0,0.5-0.1,0.8-0.2c0.2-0.1,0.5-0.3,0.6-0.4c0.2-0.2,0.3-0.4,0.4-0.7
					c0.1-0.3,0.2-0.5,0.2-0.8c0-0.6-0.2-1.1-0.6-1.5c-0.1-0.1-0.2-0.2-0.3-0.3c-0.1-0.1-0.4-0.2-0.7-0.4l-1.5-0.8
					c-0.4-0.2-0.7-0.4-0.8-0.5c-0.2-0.1-0.3-0.2-0.4-0.3c-0.4-0.4-0.8-0.8-1-1.4c-0.2-0.5-0.4-1.1-0.4-1.7c0-0.6,0.1-1.1,0.3-1.6
					c0.2-0.5,0.5-0.9,0.9-1.3c0.4-0.4,0.8-0.6,1.3-0.9s1-0.3,1.5-0.3c0.5,0,0.9,0.1,1.3,0.2c0.4,0.1,0.7,0.3,1,0.4
					c0.2,0.1,0.4,0.2,0.5,0.3c0.1,0.1,0.2,0.2,0.4,0.3c0.2,0.1,0.3,0.3,0.4,0.4s0.1,0.3,0.1,0.4c0,0.2-0.1,0.4-0.2,0.6l-0.1,0.1
					c-0.2,0.3-0.5,0.5-0.8,0.5c-0.2,0-0.4,0-0.5-0.1c-0.1,0-0.2-0.1-0.3-0.2c-0.2-0.1-0.3-0.2-0.6-0.4c-0.2-0.1-0.4-0.2-0.6-0.3
					C16.5,23,16.3,23,16,23c-0.3,0-0.5,0.1-0.7,0.2c-0.2,0.1-0.4,0.3-0.6,0.4c-0.2,0.2-0.3,0.4-0.4,0.6c-0.1,0.2-0.2,0.5-0.2,0.8
					c0,0.3,0.1,0.5,0.2,0.8c0.1,0.2,0.3,0.4,0.5,0.6c0.1,0.1,0.1,0.1,0.3,0.2c0.1,0.1,0.3,0.2,0.7,0.4l1.4,0.8
					c0.4,0.2,0.7,0.4,0.9,0.5c0.2,0.1,0.4,0.2,0.5,0.4c0.5,0.4,0.8,0.9,1.1,1.4c0.3,0.6,0.4,1.1,0.4,1.8C20,32.4,19.9,33,19.7,33.5"
					/>
				<path id="Fill-5" fill="#FFFFFF" d="M32,35c0,0.3-0.1,0.5-0.3,0.7c-0.2,0.2-0.4,0.3-0.7,0.3h-0.3c-0.3,0-0.5-0.1-0.6-0.3
					c-0.2-0.2-0.3-0.4-0.3-0.7v-7.4c0-0.4,0-0.7,0-0.9c0-0.2,0-0.3,0-0.4c0-0.2-0.1-0.3-0.2-0.3c-0.1,0-0.2,0.1-0.3,0.4
					c-0.1,0.3-0.2,0.6-0.4,1.1l-0.7,1.4c-0.1,0.2-0.3,0.4-0.4,0.6c-0.2,0.2-0.4,0.2-0.6,0.2h-0.5c-0.2,0-0.5-0.1-0.6-0.2
					c-0.2-0.2-0.3-0.4-0.4-0.6L25,27.4c-0.2-0.5-0.4-0.8-0.4-1.1c-0.1-0.3-0.2-0.4-0.3-0.4c-0.1,0-0.2,0.1-0.2,0.3
					c0,0.1,0,0.2,0,0.4c0,0.2,0,0.5,0,0.9V35c0,0.3-0.1,0.5-0.3,0.7c-0.2,0.2-0.4,0.3-0.6,0.3h-0.3c-0.3,0-0.5-0.1-0.7-0.3
					C22.1,35.5,22,35.3,22,35V22c0-0.3,0.1-0.5,0.3-0.7c0.2-0.2,0.4-0.3,0.7-0.3h0.3c0.2,0,0.5,0.1,0.7,0.2c0.2,0.1,0.4,0.3,0.5,0.6
					l2,4.3c0.2,0.3,0.3,0.5,0.3,0.8c0.1,0.2,0.2,0.3,0.3,0.3c0.1,0,0.2-0.1,0.3-0.3c0.1-0.2,0.2-0.5,0.3-0.8l2-4.3
					c0.1-0.3,0.3-0.5,0.5-0.6c0.2-0.1,0.4-0.2,0.7-0.2h0.3c0.3,0,0.5,0.1,0.7,0.3c0.2,0.2,0.3,0.4,0.3,0.7L32,35z"/>
				<path id="Fill-7" fill="#FFFFFF" d="M42.7,33.5c-0.2,0.5-0.5,0.9-0.9,1.3c-0.4,0.4-0.8,0.7-1.3,0.9c-0.5,0.2-1,0.3-1.6,0.3
					c-0.5,0-0.9-0.1-1.3-0.2c-0.4-0.1-0.7-0.3-1-0.4c-0.2-0.1-0.4-0.2-0.5-0.3c-0.1-0.1-0.2-0.2-0.4-0.2c-0.2-0.1-0.4-0.3-0.4-0.4
					c-0.1-0.1-0.1-0.3-0.1-0.4c0-0.2,0.1-0.4,0.2-0.6l0.1-0.1c0.2-0.3,0.5-0.5,0.8-0.5c0.2,0,0.4,0.1,0.5,0.2l0.9,0.6
					c0.2,0.1,0.4,0.2,0.6,0.3c0.2,0.1,0.4,0.1,0.7,0.1c0.3,0,0.5-0.1,0.8-0.2c0.2-0.1,0.5-0.3,0.6-0.4c0.2-0.2,0.3-0.4,0.4-0.7
					c0.1-0.3,0.2-0.5,0.2-0.8c0-0.6-0.2-1.1-0.6-1.5c-0.1-0.1-0.2-0.2-0.3-0.3c-0.1-0.1-0.4-0.2-0.7-0.4l-1.5-0.8
					c-0.4-0.2-0.7-0.4-0.8-0.5c-0.2-0.1-0.3-0.2-0.4-0.3c-0.4-0.4-0.8-0.8-1-1.4c-0.2-0.5-0.4-1.1-0.4-1.7c0-0.6,0.1-1.1,0.3-1.6
					c0.2-0.5,0.5-0.9,0.9-1.3s0.8-0.6,1.3-0.9s1-0.3,1.5-0.3c0.5,0,0.9,0.1,1.3,0.2c0.4,0.1,0.7,0.3,1,0.4c0.2,0.1,0.4,0.2,0.5,0.3
					c0.1,0.1,0.2,0.2,0.4,0.3c0.2,0.1,0.3,0.3,0.4,0.4s0.1,0.3,0.1,0.4c0,0.2-0.1,0.4-0.2,0.6l-0.1,0.1c-0.2,0.3-0.5,0.5-0.8,0.5
					c-0.2,0-0.4,0-0.5-0.1c-0.1,0-0.2-0.1-0.3-0.2c-0.2-0.1-0.3-0.2-0.6-0.4c-0.2-0.1-0.4-0.2-0.6-0.3C39.5,23,39.3,23,39,23
					c-0.3,0-0.5,0.1-0.7,0.2c-0.2,0.1-0.4,0.3-0.6,0.4c-0.2,0.2-0.3,0.4-0.4,0.6c-0.1,0.2-0.2,0.5-0.2,0.8c0,0.3,0.1,0.5,0.2,0.8
					c0.1,0.2,0.3,0.4,0.5,0.6c0.1,0.1,0.1,0.1,0.3,0.2c0.1,0.1,0.3,0.2,0.7,0.4l1.4,0.8c0.4,0.2,0.7,0.4,0.9,0.5
					c0.2,0.1,0.4,0.2,0.5,0.4c0.5,0.4,0.8,0.9,1.1,1.4c0.3,0.6,0.4,1.1,0.4,1.8C43,32.4,42.9,33,42.7,33.5"/>
			</g>
		</g>
	</g>
</g>
</svg>
